# File created by Blade
# Date/Time:  Wed Jan 21 17:41:14 2015
# Frame Rate: 120.000 fps
#------------------------------------------------------
:FULLY-SPECIFIED
:DEGREES
1322
root 12.849023 32.551644 -21.646818 -425.348542 87.172859 -513.900263
Spine 64.732993 6.255899 1.791584
Head -24.553780 2.122561 11.169065
LeftShoulder -2.763597 -48.314651 43.916234
LeftArm 55.899529 -33.309756 -0.903133
LeftForeArm -16.094242 -0.000000 -10.306147
LeftHand 6.418328 -0.000000 42.149000
LeftHandThumb1 -26.253704 0.000000 33.147579
RightShoulder 1.069217 11.558234 -32.492977
RightArm 39.982800 69.693615 -7.957322
RightForeArm -3.247437 -0.000000 8.923107
RightHand -4.979129 -0.000000 -54.291572
RightHandThumb1 -24.326973 -0.000000 -32.862282
LeftUpLeg -61.532933 -3.395610 2.745023
LeftLeg -0.044729 -0.000000 0.000000
LeftFoot -37.973428 24.108965 -14.784040
LeftToeBase 18.456148 -0.000000 -0.000000
RightUpLeg -59.620496 1.445799 3.643245
RightLeg -4.061401 -0.000000 0.000000
RightFoot -35.979096 -20.096054 19.447130
RightToeBase 20.127756 -0.000000 -0.000000
1323
root 12.892107 32.545528 -21.653436 -426.536309 87.169560 -515.038274
Spine 64.880687 6.104857 1.995191
Head -25.009062 1.715980 10.710498
LeftShoulder -2.854284 -48.661216 43.625313
LeftArm 56.065926 -33.003778 -1.011747
LeftForeArm -16.098299 0.000000 -10.073727
LeftHand 6.312463 -0.000000 42.301189
LeftHandThumb1 -26.253704 0.000000 33.147579
RightShoulder -0.150544 13.084772 -32.827598
RightArm 46.494841 68.650910 -1.452707
RightForeArm -4.385344 0.000000 8.829443
RightHand -4.925724 -0.000000 -54.880396
RightHandThumb1 -24.326973 -0.000000 -32.862282
LeftUpLeg -61.403633 -3.451285 2.795421
LeftLeg -0.040632 -0.000000 0.000000
LeftFoot -37.811394 24.014623 -14.724388
LeftToeBase 18.293221 -0.000000 -0.000000
RightUpLeg -59.455322 1.362616 3.695356
RightLeg -4.140661 -0.000000 0.000000
RightFoot -35.856049 -20.072522 19.420843
RightToeBase 20.015751 -0.000000 -0.000000
1324
root 12.922553 32.546284 -21.656330 -426.795621 87.168150 -515.375951
Spine 64.828926 6.028761 2.134189
Head -25.328722 1.484291 10.337443
LeftShoulder -2.877185 -48.935153 43.323680
LeftArm 56.205730 -32.657122 -0.993510
LeftForeArm -16.215082 -0.000000 -9.923258
LeftHand 6.282886 -0.000000 42.376629
LeftHandThumb1 -26.253704 0.000000 33.147579
RightShoulder -1.269335 14.695607 -33.151341
RightArm 51.591005 67.139153 3.709633
RightForeArm -5.317275 0.000000 8.827249
RightHand -4.953864 -0.000000 -55.394880
RightHandThumb1 -24.326973 -0.000000 -32.862282
LeftUpLeg -61.448133 -3.461079 2.830624
LeftLeg 0.000000 -0.000000 0.000000
LeftFoot -37.671088 23.971585 -14.667172
LeftToeBase 18.141554 -0.000000 -0.000000
RightUpLeg -59.476214 1.330595 3.735995
RightLeg -4.161223 -0.000000 0.000000
RightFoot -35.732558 -20.065202 19.415818
RightToeBase 19.903493 -0.000000 -0.000000
1325
root 12.951882 32.546159 -21.658782 -425.891992 87.211031 -514.611789
Spine 64.623882 5.835651 1.893068
Head -25.453058 1.365539 9.871725
LeftShoulder -3.171214 -49.021087 43.189182
LeftArm 56.344302 -32.214321 -0.937529
LeftForeArm -16.249821 -0.000000 -9.792161
LeftHand 6.072621 -0.000000 42.437811
LeftHandThumb1 -26.253704 0.000000 33.147579
RightShoulder -2.230700 17.163960 -33.560492
RightArm 56.660823 64.803794 9.078228
RightForeArm -6.532913 -0.000000 8.933468
RightHand -5.048933 -0.000000 -56.106157
RightHandThumb1 -24.326973 -0.000000 -32.862282
LeftUpLeg -61.544086 -3.452611 2.843606
LeftLeg 0.030587 -0.000000 -0.000000
LeftFoot -37.546532 23.970198 -14.607725
LeftToeBase 17.888267 -0.000000 -0.000000
RightUpLeg -59.559435 1.346651 3.698122
RightLeg -4.184579 -0.000000 0.000000
RightFoot -35.596570 -20.110890 19.367260
RightToeBase 19.803495 -0.000000 -0.000000
1326
root 12.994165 32.541032 -21.667861 -426.916160 87.226376 -515.509685
Spine 64.725400 5.751082 1.906592
Head -25.482447 1.277899 9.799637
LeftShoulder -3.103469 -49.056709 43.066774
LeftArm 56.416420 -32.030750 -0.919673
LeftForeArm -16.317676 -0.000000 -9.802674
LeftHand 6.191718 -0.000000 42.662695
LeftHandThumb1 -26.253704 0.000000 33.147579
RightShoulder -2.094709 17.081280 -33.527916
RightArm 56.715975 64.855046 9.218758
RightForeArm -6.669638 -0.000000 9.096458
RightHand -5.018899 -0.000000 -56.216207
RightHandThumb1 -24.326973 -0.000000 -32.862282
LeftUpLeg -61.343908 -3.532397 2.887004
LeftLeg 0.016868 -0.000000 -0.000000
LeftFoot -37.398160 23.945351 -14.603443
LeftToeBase 17.712758 -0.000000 -0.000000
RightUpLeg -59.315308 1.237618 3.781320
RightLeg -4.276534 -0.000000 0.000000
RightFoot -35.472062 -20.071793 19.353934
RightToeBase 19.760843 -0.000000 -0.000000
1327
root 13.012855 32.552865 -21.662088 -425.371038 87.178122 -514.055792
Spine 64.527774 5.948747 2.001066
Head -25.403243 1.171329 9.887744
LeftShoulder -2.885376 -49.134374 42.964973
LeftArm 56.483911 -31.822733 -0.985870
LeftForeArm -16.368564 -0.000000 -9.782267
LeftHand 6.145957 -0.000000 42.861389
LeftHandThumb1 -26.253704 0.000000 33.147579
RightShoulder -2.029858 16.962572 -33.442638
RightArm 56.329041 64.689098 8.855764
RightForeArm -6.639371 0.000000 9.161428
RightHand -5.072002 -0.000000 -56.401452
RightHandThumb1 -24.326973 -0.000000 -32.862282
LeftUpLeg -61.450706 -3.469074 3.001312
LeftLeg 0.088603 -0.000000 -0.000000
LeftFoot -37.303606 24.034636 -14.568295
LeftToeBase 17.583603 -0.000000 -0.000000
RightUpLeg -59.400131 1.357893 3.778907
RightLeg -4.227156 -0.000000 0.000000
RightFoot -35.331071 -20.089049 19.476232
RightToeBase 19.621337 -0.000000 -0.000000
1328
root 13.045907 32.553354 -21.667914 -425.816655 87.152166 -514.451855
Spine 64.552497 5.973269 2.143871
Head -25.491871 1.036126 9.855449
LeftShoulder -2.795203 -49.199385 42.854097
LeftArm 56.676241 -31.742664 -1.189049
LeftForeArm -16.309022 0.000000 -9.799593
LeftHand 6.157299 -0.000000 43.005619
LeftHandThumb1 -26.253704 0.000000 33.147579
RightShoulder -2.069019 16.728304 -33.421043
RightArm 56.323341 64.715000 8.863020
RightForeArm -6.651273 -0.000000 9.239379
RightHand -4.867947 -0.000000 -56.444715
RightHandThumb1 -24.326973 -0.000000 -32.862282
LeftUpLeg -61.358860 -3.493870 3.060971
LeftLeg 0.112011 -0.000000 -0.000000
LeftFoot -37.147656 24.036169 -14.500552
LeftToeBase 17.393562 -0.000000 -0.000000
RightUpLeg -59.273375 1.305587 3.866351
RightLeg -4.262115 -0.000000 0.000000
RightFoot -35.172907 -20.025410 19.489902
RightToeBase 19.501897 -0.000000 -0.000000
1329
root 13.079564 32.557219 -21.670153 -425.923038 87.137835 -514.527175
Spine 64.537603 5.995118 2.231168
Head -25.509450 0.885088 9.761275
LeftShoulder -2.713087 -49.226283 42.772162
LeftArm 56.797189 -31.653466 -1.397139
LeftForeArm -16.219518 -0.000000 -9.737420
LeftHand 6.114602 -0.000000 43.207558
LeftHandThumb1 -26.253704 0.000000 33.147579
RightShoulder -2.131771 16.772975 -33.455852
RightArm 56.616944 64.500880 9.225620
RightForeArm -6.756417 -0.000000 9.287499
RightHand -4.962023 -0.000000 -56.650849
RightHandThumb1 -24.326973 -0.000000 -32.862282
LeftUpLeg -61.291131 -3.450264 3.032347
LeftLeg 0.183027 -0.000000 -0.000000
LeftFoot -36.964171 23.858106 -14.414597
LeftToeBase 17.205795 -0.000000 -0.000000
RightUpLeg -59.180736 1.300090 3.883044
RightLeg -4.272824 -0.000000 0.000000
RightFoot -35.010937 -20.024168 19.513478
RightToeBase 19.307669 -0.000000 -0.000000
1330
root 13.152745 32.537647 -21.695017 -429.503164 87.167004 -517.692307
Spine 65.089094 5.735375 2.457848
Head -25.740190 0.848442 9.408321
LeftShoulder -2.681266 -49.415964 42.620790
LeftArm 56.840392 -31.520378 -1.513028
LeftForeArm -16.156938 -0.000000 -9.676885
LeftHand 6.003419 -0.000000 43.309860
LeftHandThumb1 -26.253704 0.000000 33.147579
RightShoulder -2.210870 16.887789 -33.625066
RightArm 56.644045 64.340305 9.295949
RightForeArm -6.816976 -0.000000 9.320857
RightHand -4.884216 -0.000000 -56.745966
RightHandThumb1 -24.326973 -0.000000 -32.862282
LeftUpLeg -60.698526 -3.749529 3.135243
LeftLeg 0.017837 -0.000000 -0.000000
LeftFoot -36.799336 24.058528 -14.512018
LeftToeBase 16.977124 -0.000000 -0.000000
RightUpLeg -58.543388 0.968319 4.077383
RightLeg -4.460285 -0.000000 0.000000
RightFoot -34.828853 -19.879778 19.345106
RightToeBase 19.308216 -0.000000 -0.000000
1331
root 13.185897 32.545661 -21.698430 -429.770115 87.139397 -517.947286
Spine 65.073909 5.768327 2.610732
Head -25.804561 0.689294 9.313165
LeftShoulder -2.563791 -49.474707 42.507434
LeftArm 56.911547 -31.404628 -1.646780
LeftForeArm -16.121851 -0.000000 -9.594997
LeftHand 5.989882 -0.000000 43.449398
LeftHandThumb1 -26.253704 0.000000 33.147579
RightShoulder -2.302318 16.701522 -33.635229
RightArm 56.861615 64.314418 9.456822
RightForeArm -6.810761 -0.000000 9.249952
RightHand -4.868759 -0.000000 -56.815495
RightHandThumb1 -24.326973 -0.000000 -32.862282
LeftUpLeg -60.667279 -3.766091 3.192433
LeftLeg 0.070056 -0.000000 -0.000000
LeftFoot -36.625784 24.057969 -14.499669
LeftToeBase 16.775168 -0.000000 -0.000000
RightUpLeg -58.483492 0.983738 4.057904
RightLeg -4.451394 -0.000000 0.000000
RightFoot -34.682890 -19.887770 19.445563
RightToeBase 19.117010 -0.000000 -0.000000
1332
root 13.209218 32.557147 -21.697920 -428.977258 87.138030 -517.240659
Spine 64.850166 5.866441 2.661834
Head -25.664533 0.505813 9.302194
LeftShoulder -2.356720 -49.534586 42.353930
LeftArm 57.014930 -31.175891 -1.784645
LeftForeArm -16.095455 -0.000000 -9.541961
LeftHand 5.978088 -0.000000 43.653945
LeftHandThumb1 -26.253704 0.000000 33.147579
RightShoulder -2.252019 16.527356 -33.558952
RightArm 56.940814 64.207102 9.432480
RightForeArm -6.814349 -0.000000 9.116798
RightHand -4.978782 -0.000000 -56.974123
RightHandThumb1 -24.326973 -0.000000 -32.862282
LeftUpLeg -60.759381 -3.713678 3.178772
LeftLeg 0.151723 -0.000000 -0.000000
LeftFoot -36.428945 24.084182 -14.374107
LeftToeBase 16.617911 -0.000000 -0.000000
RightUpLeg -58.569882 1.109053 3.908113
RightLeg -4.401062 -0.000000 0.000000
RightFoot -34.568423 -20.075647 19.534266
RightToeBase 18.961587 -0.000000 -0.000000
